<?xml version="1.0" encoding="UTF-8" standalone="no"?>
<svg
   xmlns:dc="http://purl.org/dc/elements/1.1/"
   xmlns:cc="http://creativecommons.org/ns#"
   xmlns:rdf="http://www.w3.org/1999/02/22-rdf-syntax-ns#"
   xmlns:svg="http://www.w3.org/2000/svg"
   xmlns="http://www.w3.org/2000/svg"
   xmlns:sodipodi="http://sodipodi.sourceforge.net/DTD/sodipodi-0.dtd"
   xmlns:inkscape="http://www.inkscape.org/namespaces/inkscape"
   version="1.1"
   id="svg10"
   width="358"
   height="268"
   viewBox="0 0 358 268"
   sodipodi:docname="logo minimalis bulls.svg"
   inkscape:version="1.0.1 (3bc2e813f5, 2020-09-07)">
  <metadata
     id="metadata16">
    <rdf:RDF>
      <cc:Work
         rdf:about="">
        <dc:format>image/svg+xml</dc:format>
        <dc:type
           rdf:resource="http://purl.org/dc/dcmitype/StillImage" />
        <dc:title></dc:title>
      </cc:Work>
    </rdf:RDF>
  </metadata>
  <defs
     id="defs14" />
  <sodipodi:namedview
     pagecolor="#ffffff"
     bordercolor="#666666"
     borderopacity="1"
     objecttolerance="10"
     gridtolerance="10"
     guidetolerance="10"
     inkscape:pageopacity="0"
     inkscape:pageshadow="2"
     inkscape:window-width="1267"
     inkscape:window-height="722"
     id="namedview12"
     showgrid="false"
     inkscape:zoom="0.99205806"
     inkscape:cx="99.633192"
     inkscape:cy="204.7724"
     inkscape:window-x="21"
     inkscape:window-y="0"
     inkscape:window-maximized="0"
     inkscape:current-layer="g18" />
  <g
     inkscape:groupmode="layer"
     inkscape:label="Image"
     id="g18">
    <path
       style="opacity:1;fill:#000000;fill-opacity:1;stroke:#000000;stroke-width:2.19284;stroke-linecap:round;stroke-linejoin:bevel;stroke-miterlimit:4;stroke-dasharray:none;stroke-opacity:1;paint-order:stroke fill markers"
       d="M 39.178819,20.096645 H 312.5864 V 251.70884 H 39.178819 Z"
       id="rect1056" />
    <path
       id="path1077"
       style="fill:#ffffff;stroke:#000000;stroke-width:1.27112;stroke-linecap:butt;stroke-linejoin:miter;stroke-miterlimit:4;stroke-dasharray:none;stroke-opacity:1"
       d="m 113.48438,72.925781 c -0.005,-0.0019 -0.003,0.0578 -0.002,0.125 4e-4,-9.16e-4 0.0176,-0.04687 0.0176,-0.04687 -0.007,-0.05053 -0.0117,-0.07659 -0.0156,-0.07813 z m -0.002,0.125 c -0.0594,0.137575 -4.52644,10.51341 -3.42383,18.009766 1.10999,7.546283 6.18647,18.836163 12.40235,24.849613 6.21584,6.01344 25.66526,18.41417 36.40625,23.58203 9.47542,4.55893 17.02855,9.65089 26.75586,16.2539 5.35749,3.63673 10.54297,10.14063 10.54297,10.14063 l 10.98828,-10.25586 c 0,0 -10.19461,-9.35431 -20.20118,-16.50977 -7.5113,-5.37117 -16.14751,-10.06269 -28.30273,-15.20898 C 148.1786,119.47858 137.40205,113.00651 130.67578,107.875 115.50236,96.299155 113.50855,74.692225 113.48242,73.050781 Z m 129.63672,2.044922 c 0,0 -0.66674,5.895344 -2.2207,9.904297 -1.55395,4.008955 -5.10535,16.27403 -16.20508,23.82031 -11.09973,7.54628 -39.07031,22.51953 -39.07031,22.51953 2.94155,2.90847 8.13784,5.81614 12.54101,8.72461 l 22.08789,-12.3789 c 0,0 17.71571,-11.87753 21.64453,-20.75391 3.8844,-8.776 4.64952,-14.974928 3.7754,-23.226562 -0.93447,-8.821357 -2.55274,-8.609375 -2.55274,-8.609375 z M 129.2832,136.22266 c -2.93835,0.006 -5.88986,0.64392 -7.80664,2.67382 0.19477,-0.18389 3.39032,5.63174 6.01953,8.60938 1.92877,2.18436 6.04837,5.62802 10.38477,4.55859 5.22424,-1.28841 7.09768,-0.83329 15.86328,5.16211 7.43097,5.08258 14.51813,6.99756 18.72461,11.49024 4.07443,4.35166 8.71655,6.26745 8.93555,10.02343 0.15796,2.70934 -3.86633,3.87947 -6.2168,2.71289 -3.14263,-1.55968 -9.8277,-9.82334 -9.32227,-9.66992 0.17726,0.34521 -1.6516,-2.60624 -2.49804,-0.79492 -1.47551,3.15752 -1.59486,5.88928 -1.5,8.57617 0.15951,4.51573 1.23321,5.93484 4.18359,9.59571 3.10661,3.85471 9.3547,5.87097 16.55664,4.26757 7.41766,-1.6514 7.85042,-2.51608 10.12696,-6.09375 2.3793,-3.7392 2.42891,-7.29172 1.91796,-11.24609 -0.39603,-3.06512 -3.62702,-7.72626 -7.00195,-10.89453 -3.37495,-3.16827 -12.56698,-11.56992 -23.24023,-17.1582 -10.66573,-5.58435 -24.69207,-9.92532 -25.36524,-10.06836 0,0 -4.86446,-1.75208 -9.76172,-1.74414 z m 92.90235,1.04882 c -6.88501,0.27968 -18.99024,5.38086 -18.99024,5.38086 -1.49574,0 4.70993,6.59709 7.26367,8.29493 3.00329,1.99669 10.28955,3.73306 14.48047,0.29296 4.82352,-3.95937 8.4375,-12.76367 8.4375,-12.76367 0,0 -2.19781,-0.68081 -9.89062,-1.19336 -0.4075,-0.0271 -0.84178,-0.0302 -1.30078,-0.0117 z" />
  </g>
</svg>
